<svg xmlns="http://www.w3.org/2000/svg" xmlns:xlink="http://www.w3.org/1999/xlink" version="1.1" width="65" height="54" viewBox="0 0 65 54" xml:space="preserve">
<desc>Created with Fabric.js 3.5.0</desc>
<defs>
</defs>
<rect x="0" y="0" width="100%" height="100%" fill="#ffffff"/>
<g transform="matrix(0.5067 0 0 0.4335 33.2308 26.3967)" id="835063">
<path style="stroke: none; stroke-width: 0; stroke-dasharray: none; stroke-linecap: butt; stroke-dashoffset: 0; stroke-linejoin: miter; stroke-miterlimit: 4; is-custom-font: none; font-file-url: none; fill: rgb(0,0,0); fill-rule: nonzero; opacity: 1;" vector-effect="non-scaling-stroke" transform=" translate(-61.45, -59.6714)" d="M 57.49 29.2 V 23.53 a 14.41 14.41 0 0 1 -2 -0.93 A 12.18 12.18 0 0 1 50.44 7.5 a 12.39 12.39 0 0 1 2.64 -3.95 A 12.21 12.21 0 0 1 57 0.92 A 12 12 0 0 1 61.66 0 A 12.14 12.14 0 0 1 72.88 7.5 a 12.14 12.14 0 0 1 0 9.27 a 12.08 12.08 0 0 1 -2.64 3.94 l -0.06 0.06 a 12.74 12.74 0 0 1 -2.36 1.83 a 11.26 11.26 0 0 1 -2 0.93 V 29.2 H 94.3 a 15.47 15.47 0 0 1 15.42 15.43 v 2.29 H 115 a 7.93 7.93 0 0 1 7.9 7.91 V 73.2 A 7.93 7.93 0 0 1 115 81.11 h -5.25 v 2.07 A 15.48 15.48 0 0 1 94.3 98.61 H 55.23 L 31.81 118.72 a 2.58 2.58 0 0 1 -3.65 -0.29 a 2.63 2.63 0 0 1 -0.63 -1.85 l 1.25 -18 h -0.21 A 15.45 15.45 0 0 1 13.16 83.18 V 81.11 H 7.91 A 7.93 7.93 0 0 1 0 73.2 V 54.83 a 7.93 7.93 0 0 1 7.9 -7.91 h 5.26 v -2.3 A 15.45 15.45 0 0 1 28.57 29.2 H 57.49 Z M 82.74 47.32 a 9.36 9.36 0 1 1 -9.36 9.36 a 9.36 9.36 0 0 1 9.36 -9.36 Z m -42.58 0 a 9.36 9.36 0 1 1 -9.36 9.36 a 9.36 9.36 0 0 1 9.36 -9.36 Z m 6.38 31.36 a 2.28 2.28 0 0 1 -0.38 -0.38 a 2.18 2.18 0 0 1 -0.52 -1.36 a 2.21 2.21 0 0 1 0.46 -1.39 a 2.4 2.4 0 0 1 0.39 -0.39 a 3.22 3.22 0 0 1 3.88 -0.08 A 22.36 22.36 0 0 0 56 78.32 a 14.86 14.86 0 0 0 5.47 1 A 16.18 16.18 0 0 0 67 78.22 A 25.39 25.39 0 0 0 72.75 75 a 3.24 3.24 0 0 1 3.89 0.18 a 3 3 0 0 1 0.37 0.41 a 2.22 2.22 0 0 1 0.42 1.4 a 2.33 2.33 0 0 1 -0.58 1.35 a 2.29 2.29 0 0 1 -0.43 0.38 a 30.59 30.59 0 0 1 -7.33 4 a 22.28 22.28 0 0 1 -7.53 1.43 A 21.22 21.22 0 0 1 54 82.87 a 27.78 27.78 0 0 1 -7.41 -4.16 l 0 0 Z M 94.29 34.4 H 28.57 A 10.26 10.26 0 0 0 18.35 44.63 V 83.18 A 10.26 10.26 0 0 0 28.57 93.41 h 3.17 a 2.61 2.61 0 0 1 2.41 2.77 l -1 14.58 L 52.45 94.15 a 2.56 2.56 0 0 1 1.83 -0.75 h 40 a 10.26 10.26 0 0 0 10.22 -10.23 V 44.62 A 10.24 10.24 0 0 0 94.29 34.4 Z" stroke-linecap="round"/>
</g>
</svg>